<mxfile host="app.diagrams.net" modified="2024-07-29T09:05:56.377Z" agent="Mozilla/5.0 (Macintosh; Intel Mac OS X 10_15_7) AppleWebKit/537.36 (KHTML, like Gecko) Chrome/126.0.0.0 Safari/537.36" version="21.6.5" etag="kOFhze22sMJWf8LQQfzJ" type="github">
  <diagram name="Page-1" id="kYsP_U9T_nlzZvb7yqgn">
    <mxGraphModel>
      <root>
        <mxCell id="0" />
        <mxCell id="1" parent="0" />
      </root>
    </mxGraphModel>
  </diagram>
</mxfile>
